<?xml version="1.0" standalone="no"?>
<!DOCTYPE svg PUBLIC "-//W3C//DTD SVG 20010904//EN"
 "http://www.w3.org/TR/2001/REC-SVG-20010904/DTD/svg10.dtd">
<svg version="1.0" xmlns="http://www.w3.org/2000/svg"
 width="170.000000pt" height="170.000000pt" viewBox="0 0 170.000000 170.000000"
 preserveAspectRatio="xMidYMid meet">
<metadata>
Created by potrace 1.14, written by Peter Selinger 2001-2017
</metadata>
<g transform="translate(0.000000,170.000000) scale(0.100000,-0.100000)"
fill="#000000" stroke="none">
<path d="M0 850 l0 -740 850 0 850 0 0 740 0 740 -850 0 -850 0 0 -740z m986
328 c-4 -18 -31 -172 -62 -343 -30 -171 -57 -320 -59 -333 -5 -20 -11 -22 -70
-22 -36 0 -65 2 -65 4 0 3 9 51 19 108 22 116 89 495 97 548 11 71 10 70 81
70 l66 0 -7 -32z m-261 -21 c-18 -116 -5 -102 -185 -206 -90 -53 -165 -99
-165 -102 0 -3 58 -55 128 -114 114 -96 127 -111 123 -134 -3 -14 -8 -45 -11
-69 -4 -24 -11 -42 -16 -40 -4 2 -83 65 -174 141 l-165 138 0 83 0 82 228 132
c125 72 231 131 235 132 5 0 5 -19 2 -43z m566 -95 l164 -137 3 -85 2 -85 -62
-36 c-35 -19 -139 -79 -231 -133 -93 -53 -171 -95 -173 -93 -8 8 19 147 30
156 6 5 79 48 161 96 83 47 154 90 158 94 4 4 -51 57 -123 116 -126 104 -131
110 -126 140 4 16 9 47 13 68 3 20 9 37 13 37 3 0 80 -62 171 -138z"/>
</g>
</svg>
